<svg width="16.000000" height="16.000000" viewBox="0 0 16 16" fill="none" xmlns="http://www.w3.org/2000/svg" xmlns:xlink="http://www.w3.org/1999/xlink">
	<desc>
			Created with Pixso.
	</desc>
	<defs>
		<clipPath id="clip2_2">
			<rect id="telephone-call 1" width="16.000000" height="16.000000" transform="translate(-0.999756 0.000000)" fill="white" fill-opacity="0"/>
		</clipPath>
	</defs>
	<rect id="telephone-call 1" width="16.000000" height="16.000000" transform="translate(-0.999756 0.000000)" fill="#FFFFFF" fill-opacity="0"/>
	<g clip-path="url(#clip2_2)">
		<path id="Vector" d="M7 1C3.14 1 0 4.12 0 7.99C0 9.19 0.31 10.36 0.9 11.4L0.04 13.97C-0.05 14.25 0.03 14.56 0.23 14.76C0.46 14.97 0.75 15.06 1.02 14.95L3.59 14.09C4.63 14.68 5.8 14.99 7 14.99C10.87 14.99 14 11.85 14 7.99C14 4.12 10.87 1 7 1L7 1ZM3.88 8.77C3.46 8.77 3.11 8.41 3.11 7.99C3.11 7.56 3.46 7.22 3.88 7.22C4.32 7.22 4.66 7.56 4.66 7.99C4.66 8.41 4.32 8.77 3.88 8.77ZM7 8.77C6.57 8.77 6.22 8.41 6.22 7.99C6.22 7.56 6.57 7.22 7 7.22C7.43 7.22 7.77 7.56 7.77 7.99C7.77 8.41 7.43 8.77 7 8.77ZM10.11 8.77C9.69 8.77 9.33 8.41 9.33 7.99C9.33 7.56 9.69 7.22 10.11 7.22C10.54 7.22 10.88 7.56 10.88 7.99C10.88 8.41 10.54 8.77 10.11 8.77Z" fill="#FFFFFF" fill-opacity="1.000000" fill-rule="nonzero"/>
	</g>
</svg>
